<mxfile host="Electron" agent="Mozilla/5.0 (Windows NT 10.0; Win64; x64) AppleWebKit/537.36 (KHTML, like Gecko) draw.io/23.0.2 Chrome/120.0.6099.109 Electron/28.1.0 Safari/537.36" modified="2024-09-10T19:19:00.970Z" version="23.0.2" etag="HM9Zo8-Q9R9kmHtBPS2H" type="device">
  <diagram name="Página-1" id="eNVyyo_WikC6nExRB0Ks">
    <mxGraphModel dx="902" dy="526" grid="1" gridSize="10" guides="1" tooltips="1" connect="1" arrows="1" fold="1" page="1" pageScale="1" pageWidth="827" pageHeight="1169" math="0" shadow="0">
      <root>
        <mxCell id="0" />
        <mxCell id="1" parent="0" />
        <mxCell id="3Idq8oZBJXgZ0Yi573gU-1" value="" style="whiteSpace=wrap;html=1;aspect=fixed;" parent="1" vertex="1">
          <mxGeometry x="120" y="10" width="850" height="850" as="geometry" />
        </mxCell>
        <mxCell id="3Idq8oZBJXgZ0Yi573gU-2" value="&lt;font style=&quot;font-size: 14px;&quot;&gt;Realizar informes&lt;br&gt;&lt;/font&gt;" style="text;html=1;align=center;verticalAlign=middle;whiteSpace=wrap;rounded=0;" parent="1" vertex="1">
          <mxGeometry x="125" y="10" width="130" height="30" as="geometry" />
        </mxCell>
        <mxCell id="3Idq8oZBJXgZ0Yi573gU-5" value="" style="edgeStyle=orthogonalEdgeStyle;rounded=0;orthogonalLoop=1;jettySize=auto;html=1;" parent="1" source="3Idq8oZBJXgZ0Yi573gU-3" target="3Idq8oZBJXgZ0Yi573gU-4" edge="1">
          <mxGeometry relative="1" as="geometry" />
        </mxCell>
        <mxCell id="3Idq8oZBJXgZ0Yi573gU-3" value="Ingresa a registrar&lt;br&gt;informe" style="rounded=0;whiteSpace=wrap;html=1;" parent="1" vertex="1">
          <mxGeometry x="485" y="30" width="120" height="60" as="geometry" />
        </mxCell>
        <mxCell id="3Idq8oZBJXgZ0Yi573gU-7" value="" style="edgeStyle=orthogonalEdgeStyle;rounded=0;orthogonalLoop=1;jettySize=auto;html=1;" parent="1" source="3Idq8oZBJXgZ0Yi573gU-4" target="3Idq8oZBJXgZ0Yi573gU-6" edge="1">
          <mxGeometry relative="1" as="geometry" />
        </mxCell>
        <mxCell id="3Idq8oZBJXgZ0Yi573gU-4" value="Ingresa a nuevo informe" style="rounded=0;whiteSpace=wrap;html=1;" parent="1" vertex="1">
          <mxGeometry x="485" y="140" width="120" height="60" as="geometry" />
        </mxCell>
        <mxCell id="3Idq8oZBJXgZ0Yi573gU-9" value="" style="edgeStyle=orthogonalEdgeStyle;rounded=0;orthogonalLoop=1;jettySize=auto;html=1;" parent="1" source="3Idq8oZBJXgZ0Yi573gU-6" target="3Idq8oZBJXgZ0Yi573gU-8" edge="1">
          <mxGeometry relative="1" as="geometry" />
        </mxCell>
        <mxCell id="3Idq8oZBJXgZ0Yi573gU-15" value="" style="edgeStyle=orthogonalEdgeStyle;rounded=0;orthogonalLoop=1;jettySize=auto;html=1;" parent="1" source="3Idq8oZBJXgZ0Yi573gU-6" target="3Idq8oZBJXgZ0Yi573gU-21" edge="1">
          <mxGeometry relative="1" as="geometry">
            <mxPoint x="680" y="390" as="targetPoint" />
            <Array as="points">
              <mxPoint x="670" y="310" />
              <mxPoint x="670" y="740" />
              <mxPoint x="545" y="740" />
            </Array>
          </mxGeometry>
        </mxCell>
        <mxCell id="3Idq8oZBJXgZ0Yi573gU-6" value="&lt;div&gt;¿Desea crear un&lt;/div&gt;&lt;div&gt;informe nuevo?&lt;/div&gt;" style="rhombus;whiteSpace=wrap;html=1;rounded=0;" parent="1" vertex="1">
          <mxGeometry x="477.5" y="270" width="135" height="80" as="geometry" />
        </mxCell>
        <mxCell id="3Idq8oZBJXgZ0Yi573gU-26" value="" style="edgeStyle=orthogonalEdgeStyle;rounded=0;orthogonalLoop=1;jettySize=auto;html=1;" parent="1" source="3Idq8oZBJXgZ0Yi573gU-8" target="3Idq8oZBJXgZ0Yi573gU-25" edge="1">
          <mxGeometry relative="1" as="geometry" />
        </mxCell>
        <mxCell id="3Idq8oZBJXgZ0Yi573gU-8" value="Seleccionar plantilla" style="whiteSpace=wrap;html=1;rounded=0;" parent="1" vertex="1">
          <mxGeometry x="354" y="390" width="120" height="60" as="geometry" />
        </mxCell>
        <mxCell id="3Idq8oZBJXgZ0Yi573gU-10" value="&lt;font style=&quot;font-size: 16px;&quot;&gt;Si&lt;/font&gt;" style="text;html=1;align=center;verticalAlign=middle;whiteSpace=wrap;rounded=0;" parent="1" vertex="1">
          <mxGeometry x="425" y="280" width="60" height="30" as="geometry" />
        </mxCell>
        <mxCell id="3Idq8oZBJXgZ0Yi573gU-12" value="&lt;font style=&quot;font-size: 15px;&quot;&gt;No&lt;/font&gt;" style="text;html=1;align=center;verticalAlign=middle;whiteSpace=wrap;rounded=0;" parent="1" vertex="1">
          <mxGeometry x="612.5" y="280" width="60" height="30" as="geometry" />
        </mxCell>
        <mxCell id="3Idq8oZBJXgZ0Yi573gU-21" value="Fin" style="whiteSpace=wrap;html=1;rounded=0;" parent="1" vertex="1">
          <mxGeometry x="485" y="780" width="120" height="60" as="geometry" />
        </mxCell>
        <mxCell id="3Idq8oZBJXgZ0Yi573gU-29" style="edgeStyle=orthogonalEdgeStyle;rounded=0;orthogonalLoop=1;jettySize=auto;html=1;" parent="1" source="3Idq8oZBJXgZ0Yi573gU-25" target="3Idq8oZBJXgZ0Yi573gU-27" edge="1">
          <mxGeometry relative="1" as="geometry" />
        </mxCell>
        <mxCell id="3Idq8oZBJXgZ0Yi573gU-31" style="edgeStyle=orthogonalEdgeStyle;rounded=0;orthogonalLoop=1;jettySize=auto;html=1;" parent="1" source="3Idq8oZBJXgZ0Yi573gU-25" target="3Idq8oZBJXgZ0Yi573gU-3" edge="1">
          <mxGeometry relative="1" as="geometry">
            <Array as="points">
              <mxPoint x="290" y="530" />
              <mxPoint x="290" y="60" />
            </Array>
          </mxGeometry>
        </mxCell>
        <mxCell id="3Idq8oZBJXgZ0Yi573gU-25" value="¿Desea guardar los cambios?" style="rhombus;whiteSpace=wrap;html=1;rounded=0;" parent="1" vertex="1">
          <mxGeometry x="341" y="490" width="146" height="80" as="geometry" />
        </mxCell>
        <mxCell id="3Idq8oZBJXgZ0Yi573gU-28" style="edgeStyle=orthogonalEdgeStyle;rounded=0;orthogonalLoop=1;jettySize=auto;html=1;" parent="1" source="3Idq8oZBJXgZ0Yi573gU-27" target="3Idq8oZBJXgZ0Yi573gU-21" edge="1">
          <mxGeometry relative="1" as="geometry">
            <Array as="points">
              <mxPoint x="413" y="740" />
              <mxPoint x="545" y="740" />
            </Array>
          </mxGeometry>
        </mxCell>
        <mxCell id="3Idq8oZBJXgZ0Yi573gU-27" value="Guardar cambios" style="whiteSpace=wrap;html=1;rounded=0;" parent="1" vertex="1">
          <mxGeometry x="354" y="640" width="120" height="60" as="geometry" />
        </mxCell>
        <mxCell id="3Idq8oZBJXgZ0Yi573gU-30" value="&lt;font style=&quot;font-size: 16px;&quot;&gt;Si&lt;/font&gt;" style="text;html=1;align=center;verticalAlign=middle;whiteSpace=wrap;rounded=0;" parent="1" vertex="1">
          <mxGeometry x="410" y="570" width="60" height="30" as="geometry" />
        </mxCell>
        <mxCell id="3Idq8oZBJXgZ0Yi573gU-32" value="&lt;font style=&quot;font-size: 15px;&quot;&gt;No&lt;/font&gt;" style="text;html=1;align=center;verticalAlign=middle;whiteSpace=wrap;rounded=0;" parent="1" vertex="1">
          <mxGeometry x="289" y="500" width="60" height="30" as="geometry" />
        </mxCell>
      </root>
    </mxGraphModel>
  </diagram>
</mxfile>
